<mxfile host="app.diagrams.net" modified="2024-07-28T09:42:08.792Z" agent="Mozilla/5.0 (Macintosh; Intel Mac OS X 10_15_7) AppleWebKit/537.36 (KHTML, like Gecko) Chrome/126.0.0.0 Safari/537.36" version="23.1.6" etag="u66SGgo_esBduWQsmDxi" type="github">
  <diagram name="Page-1" id="pf9O0TKkBPm4BQEg6i2m">
    <mxGraphModel>
      <root>
        <mxCell id="0" />
        <mxCell id="1" parent="0" />
      </root>
    </mxGraphModel>
  </diagram>
</mxfile>
